<svg xmlns:svg="http://www.w3.org/2000/svg" xmlns="http://www.w3.org/2000/svg" width="25.908581mm" height="25.908585mm" viewBox="0 0 25.908581 25.908585" version="1.1"><g transform="translate(-12.128016,-58.793717)"><path d="M14.395873 62.371277H36.885457L34.6176 71.348211H12.128016Z" style="fill:#000;stroke-width:0"/><path d="m15.547012 72.147807h22.489584l-2.267857 8.976934H13.279155Z" style="fill:#f0f0f0;stroke-width:0"/></g><g transform="translate(-12.128016,-58.793717)"><g aria-label="Crude" style="fill:#fff;font-family:sans-serif;font-size:11;letter-spacing:0;line-height:1;word-spacing:0"><path d="m17.887673 68.66949-0.179917 0.6985q-0.169333 0.645583-0.518583 0.973667-0.34925 0.3175-1.026584 0.3175h-0.656166q-1.227667 0-0.889-1.291167l1.30175-5.0165q0.338666-1.291166 1.545166-1.291166h0.656167q1.227667 0 0.889 1.291166l-0.275167 1.068917h-1.016l0.275167-1.068917q0.105833-0.4445-0.338667-0.4445h-0.201083q-0.41275 0-0.518583 0.4445l-1.30175 5.0165q-0.116417 0.4445 0.28575 0.4445h0.254q0.402166 0 0.518583-0.4445l0.179917-0.6985zM20.101574 66.722157 20.101574 66.722157 20.101574 66.722157h0.66675q0.455083 0 0.592666-0.550333l0.423334-1.640417q0.137583-0.550333-0.306917-0.550333h-0.66675zm0.264583 3.937 0.127-3.069167h-0.613833l-0.79375 3.069167h-1.016l1.957916-7.598833h1.989667q1.17475 0 0.8255 1.30175l-0.47625 1.87325q-0.264583 0.994833-0.931333 1.259416l-0.105834 3.164417zM27.174216 63.060324l-1.587499 6.1595q-0.179917 0.730249-0.645584 1.090083-0.455083 0.34925-1.17475 0.34925h-0.306916q-1.439334 0-1.068917-1.449917l1.5875-6.148916h1.016l-1.598083 6.180666q-0.137584 0.497417 0.3175 0.497417h0.254q0.455083 0 0.592666-0.497417l1.598084-6.180666zM27.423752 69.738407h0.762q0.211666 0 0.328083-0.09525 0.116417-0.09525 0.15875-0.243417l1.259417-4.868333q0.137583-0.550333-0.306917-0.550333h-0.709083zm0.709083-6.678083h1.767417q0.719666 0 0.994833 0.3175 0.275167 0.306916 0.09525 1.037166l-1.344083 5.1435q-0.275167 1.100667-1.49225 1.100667h-1.979084zM30.267692 70.659157l1.957917-7.598833h2.243666l-0.211667 0.846666h-1.227666l-0.677333 2.592917h1.227666l-0.211667 0.846667h-1.227666l-0.645583 2.465916h1.227666l-0.211666 0.846667z" style="-inkscape-font-specification:'BigNoodleTooOblique, Italic';fill:#fff;font-family:BigNoodleTooOblique;font-feature-settings:normal;font-size:11;font-style:italic;font-variant-caps:normal;font-variant-ligatures:normal;font-variant-numeric:normal;stroke-width:0;text-align:start;text-anchor:start;writing-mode:lr-tb"/></g><g aria-label="cards" style="fill:#000;font-family:sans-serif;font-size:11;letter-spacing:0;line-height:1;word-spacing:0"><path d="m18.804344 78.446025-0.179916 0.6985q-0.169334 0.645584-0.518584 0.973667-0.34925 0.3175-1.026583 0.3175h-0.656167q-1.227666 0-0.889-1.291167l1.30175-5.0165q0.338667-1.291166 1.545167-1.291166h0.656167q1.227666 0 0.889 1.291166l-0.275167 1.068917h-1.016l0.275167-1.068917q0.105833-0.4445-0.338667-0.4445h-0.201083q-0.41275 0-0.518584 0.4445l-1.30175 5.0165q-0.116416 0.4445 0.28575 0.4445h0.254q0.402167 0 0.518584-0.4445l0.179916-0.6985zM22.171829 76.731525l0.656166-2.529416M22.171829 76.731525l0.656166-2.529416M22.171829 76.731525l0.656166-2.529416q0.105834-0.4445-0.328083-0.4445h-0.275167q-0.455083 0-0.560916 0.4445l-0.656167 2.529416zm-2.116667 3.704167h-1.016l1.61925-6.297083q0.34925-1.30175 1.55575-1.30175h0.762q1.227667 0 0.878417 1.30175l-1.61925 6.297083h-1.016l0.719666-2.783417h-1.164166zM25.069678 76.498692h0.66675q0.455083 0 0.592666-0.550333l0.423334-1.640417q0.137583-0.550333-0.306917-0.550333h-0.66675zm0.264583 3.937 0.127-3.069167h-0.613833l-0.79375 3.069167h-1.016l1.957916-7.598833h1.989667q1.17475 0 0.8255 1.30175l-0.47625 1.87325q-0.264583 0.994833-0.931333 1.259416l-0.105834 3.164417zM28.340424 79.514942h0.761999q0.211667 0 0.328084-0.09525 0.116416-0.09525 0.15875-0.243417l1.259416-4.868333q0.137584-0.550333-0.306916-0.550333h-0.709084zm0.709083-6.678083h1.767416q0.719667 0 0.994834 0.3175 0.275166 0.306916 0.09525 1.037166l-1.344084 5.1435q-0.275166 1.100667-1.49225 1.100667H27.09159ZM32.44378 79.271525q-0.08467 0.3175 0.22225 0.3175h0.433917q0.3175 0 0.381-0.3175l0.402167-1.545166q0.05292-0.201084 0-0.275167-0.05292-0.07408-0.148167-0.137583l-0.963083-0.751417q-0.28575-0.232833-0.3175-0.53975-0.02117-0.306917 0.05292-0.624417l0.3175-1.36525q0.179917-0.656166 0.550334-0.92075 0.370416-0.275166 0.98425-0.275166h0.53975q1.227666 0 0.878416 1.30175l-0.264583 1.058333h-1.016l0.306917-1.185333q0.09525-0.328084-0.232834-0.328084h-0.296333q-0.338667 0-0.423333 0.338667l-0.391584 1.534583q-0.05292 0.211667 0.01058 0.28575 0.0635 0.0635 0.179916 0.137584l0.9525 0.762q0.254 0.179916 0.28575 0.41275 0.04233 0.22225-0.05292 0.624416l-0.328084 1.481667q-0.169333 0.645583-0.550333 0.910167-0.370417 0.264583-0.98425 0.264583H32.34853q-1.227666 0-0.85725-1.397l0.148167-0.582083h1.016z" style="-inkscape-font-specification:'BigNoodleTooOblique, Italic';fill:#000;font-family:BigNoodleTooOblique;font-feature-settings:normal;font-size:11;font-style:italic;font-variant-caps:normal;font-variant-ligatures:normal;font-variant-numeric:normal;stroke-width:0;text-align:start;text-anchor:start;writing-mode:lr-tb"/></g></g></svg>